<?xml version="1.0" encoding="UTF-8"?>
<svg version="1.1" xmlns="http://www.w3.org/2000/svg" width="800" height="800">
<path d="M0 0 C1.36089276 1.13783667 2.71565895 2.28306482 4.0625 3.4375 C4.65160156 3.88351563 5.24070312 4.32953125 5.84765625 4.7890625 C20.01975971 15.82974447 28.85621073 34.87044206 31.0625 52.4375 C32.02467988 68.67909638 30.19292843 82.04621472 25.0625 97.4375 C87.4325 159.8075 149.8025 222.1775 214.0625 286.4375 C219.3425 284.7875 224.6225 283.1375 230.0625 281.4375 C253.0568037 277.60511605 274.08432859 281.38494228 293.63671875 294.11328125 C295.51336263 295.49663588 297.29255598 296.92096206 299.0625 298.4375 C300.0215625 299.20191406 300.980625 299.96632813 301.96875 300.75390625 C314.7432635 311.44031625 324.35934024 329.93503945 326.0625 346.4375 C327.15612711 364.00408018 325.99229199 378.75732162 318.3125 394.75 C318.01408203 395.37205322 317.71566406 395.99410645 317.40820312 396.63500977 C311.85385944 407.41287861 302.90750563 415.89189514 294.42089844 424.36962891 C293.26639543 425.53013051 292.11229839 426.69103611 290.95857239 427.85231018 C287.84952288 430.97888685 284.73414852 434.09908364 281.61696529 437.21754885 C279.66388472 439.17205863 277.71223834 441.12798896 275.76108551 443.08442307 C268.93772257 449.92623907 262.10926403 456.76292069 255.27587891 463.59472656 C248.93198201 469.93742187 242.59933003 476.29119202 236.27184081 482.65025198 C230.81545015 488.13288324 225.35128494 493.60768464 219.88112092 499.07657373 C216.62442162 502.33276589 213.37082464 505.59190882 210.12505341 508.85899734 C207.07065723 511.9329088 204.00660123 514.99686625 200.9352169 518.05380058 C199.8176439 519.16930112 198.70339284 520.28814268 197.59297371 521.41076469 C179.86880052 539.31685179 160.41781196 547.95207827 135.28125 548.44433594 C113.83779548 548.37826896 94.84972034 538.68587475 79.65234375 524.12890625 C64.67423248 508.48281746 57.758379 487.54954444 57.92651367 466.06274414 C58.15135613 461.72211404 58.97305218 457.55657449 59.875 453.3125 C60.04064453 452.47074219 60.20628906 451.62898438 60.37695312 450.76171875 C61.50173104 445.28638476 63.04392008 440.82037979 65.0625 435.4375 C52.5225 422.8975 39.9825 410.3575 27.0625 397.4375 C22.55035185 401.30505556 18.24335556 405.11339728 14.07536602 409.30996609 C13.51312176 409.87195529 12.9508775 410.4339445 12.37159553 411.01296368 C10.49864918 412.88626918 8.62930731 414.76312938 6.75993347 416.63999939 C5.40005413 418.00159199 4.03994883 419.36295895 2.67963773 420.7241202 C-1.04999985 424.45733815 -4.77651934 428.19365504 -8.50255549 431.93046701 C-12.52465713 435.96306758 -16.54970066 439.99272973 -20.57444763 444.02268982 C-27.54660587 451.00455292 -34.51709361 457.98808014 -41.48661232 464.97257805 C-52.50439355 476.01374599 -63.52737289 487.04971628 -74.55119324 498.08485413 C-78.32412357 501.86178573 -82.09702069 505.63875051 -85.86990643 509.41572666 C-86.34088509 509.88721385 -86.81186375 510.35870104 -87.2971145 510.84447573 C-98.50150282 522.06099087 -109.70477044 533.27862505 -120.9074707 544.49682617 C-121.397481 544.98751163 -121.88749129 545.47819709 -122.39235038 545.9837518 C-133.82419381 557.4313861 -145.25496831 568.88008597 -156.68341064 580.33111572 C-157.17493654 580.82361289 -157.66646244 581.31611006 -158.17288306 581.82353139 C-162.13498508 585.79348034 -166.09704959 589.76346672 -170.0591043 593.73346289 C-186.86727096 610.57525826 -203.68111748 627.41136471 -220.50043219 644.24202734 C-230.56725736 654.31607498 -240.62931873 664.3948341 -250.68530526 674.47970117 C-257.57684034 681.3902367 -264.47382283 688.29530395 -271.37510971 695.19610064 C-275.35584204 699.17689598 -279.33408188 703.16010168 -283.30576706 707.14992523 C-286.94427934 710.80495664 -290.58969944 714.45294955 -294.24064799 718.0955574 C-295.55750623 719.41184334 -296.87184162 720.73065931 -298.18332741 722.05229818 C-315.70646795 739.70374734 -335.56548328 751.67339948 -361.0625 751.875 C-383.2105141 751.55598099 -403.14120637 742.96426838 -418.9375 727.4375 C-433.58409345 711.8616975 -440.64673339 691.630512 -440.34008789 670.39477539 C-439.37341017 643.66463016 -426.36561513 625.21356585 -408.09934998 607.11833191 C-406.70479649 605.72203075 -405.31112374 604.3248495 -403.91824871 602.92687398 C-400.11657255 599.1163127 -396.30263798 595.3182377 -392.48646486 591.52220237 C-388.36274175 587.41583351 -384.25066742 583.29782761 -380.13713074 579.18125916 C-373.01797634 572.06001242 -365.89156409 564.94609713 -358.76009941 557.83717918 C-348.44935164 547.55900845 -338.14972188 537.26974787 -327.85274876 526.9777805 C-311.14444936 510.27786922 -294.42690737 493.5872388 -277.70385742 476.90209961 C-261.46379214 460.69880757 -245.22796022 444.49129268 -228.99780273 428.27807617 C-228.49698368 427.77778323 -227.99616463 427.27749028 -227.48016925 426.76203694 C-222.45046555 421.7376076 -217.42084738 416.71309265 -212.39129186 411.68851499 C-202.14669712 401.45406345 -191.90153181 391.22018315 -181.65602112 380.98664856 C-181.18501245 380.51618905 -180.71400378 380.04572954 -180.22872212 379.56101368 C-148.80787565 348.17693224 -117.37369249 316.80620898 -85.9375 285.4375 C-86.89653148 284.31314419 -87.85633983 283.18945099 -88.81647682 282.06603909 C-89.35088689 281.44021165 -89.88529697 280.81438422 -90.43590128 280.16959232 C-92.07741352 278.27610992 -93.78071223 276.47366062 -95.55615234 274.70532227 C-96.51646866 273.74511925 -96.51646866 273.74511925 -97.4961853 272.76551819 C-98.16517853 272.10168625 -98.83417175 271.43785431 -99.5234375 270.75390625 C-100.22522125 270.05353745 -100.927005 269.35316864 -101.65005493 268.63157654 C-103.86851136 266.41866973 -106.09043815 264.20928584 -108.3125 262 C-109.82705466 260.49046686 -111.34137985 258.98070343 -112.85546875 257.47070312 C-116.54683099 253.79030298 -120.24104069 250.11278043 -123.9375 246.4375 C-125.03449219 246.78683594 -126.13148438 247.13617188 -127.26171875 247.49609375 C-128.71610238 247.95586664 -130.17053189 248.41549441 -131.625 248.875 C-132.34623047 249.10509766 -133.06746094 249.33519531 -133.81054688 249.57226562 C-154.67965876 256.14746526 -177.00289676 253.49773537 -196.29125977 243.64477539 C-202.06207216 240.5385127 -207.09204902 236.85807002 -211.9375 232.4375 C-212.5459375 231.92058594 -213.154375 231.40367187 -213.78125 230.87109375 C-219.79210083 225.42034493 -223.79760255 218.33195956 -227.9375 211.4375 C-228.37320313 210.7259375 -228.80890625 210.014375 -229.2578125 209.28125 C-234.29315779 200.24141752 -236.53205801 188.67491027 -236.9375 178.4375 C-236.9890625 177.61507812 -237.040625 176.79265625 -237.09375 175.9453125 C-237.84903351 154.73443404 -229.63386156 135.68775313 -215.51681137 120.19605064 C-210.92572139 115.28592061 -206.18865461 110.52344621 -201.44189453 105.76489258 C-200.31539432 104.63210935 -199.18907726 103.49914395 -198.06292725 102.36601257 C-194.40223343 98.68451471 -190.73642169 95.00813506 -187.0703125 91.33203125 C-185.79978259 90.05744654 -184.52928389 88.78283072 -183.25881577 87.50818443 C-177.29251449 81.52289275 -171.32384611 75.53997415 -165.35222924 69.55998594 C-158.48931405 62.68728611 -151.63477566 55.8063701 -144.78716576 48.91842157 C-139.46993442 43.57095653 -134.14497954 38.23126097 -128.81426322 32.89723891 C-125.64062203 29.72125802 -122.47030811 26.54212267 -119.30817032 23.35468483 C-116.33411098 20.35720844 -113.35050687 17.36956194 -110.35961151 14.38888741 C-109.27062542 13.30039327 -108.18498726 12.20853645 -107.10318375 11.11290359 C-100.59424644 4.52550892 -94.01250051 -0.95961 -85.9375 -5.5625 C-85.1114583 -6.04271197 -84.2854166 -6.52292395 -83.43434334 -7.0176878 C-58.18384494 -21.26292881 -22.68016107 -17.31660947 0 0 Z M-82.63208008 61.97094727 C-83.6597266 62.99395062 -84.68756442 64.01676185 -85.71557617 65.03939819 C-88.47597838 67.78683224 -91.23317445 70.53746034 -93.98933625 73.28914762 C-95.71601364 75.01287329 -97.44326767 76.73601915 -99.17069054 78.45899773 C-104.58972531 83.86440861 -110.00679227 89.2717799 -115.42096025 94.68206555 C-121.64608488 100.90269954 -127.87771754 107.11671625 -134.11502725 113.32513195 C-138.95710292 118.14556058 -143.7933687 122.97176837 -148.62530059 127.80236477 C-151.50291765 130.67893746 -154.38287647 133.55306497 -157.26893044 136.421175 C-159.98018717 139.115895 -162.68412133 141.81775682 -165.38274384 144.52512741 C-166.36975081 145.51290133 -167.35929309 146.49814994 -168.35163689 147.48056221 C-176.87498228 155.92362527 -183.21385209 163.08253568 -183.9375 175.4375 C-183.52573159 183.67286824 -179.32197912 189.22658391 -173.5 194.75 C-166.62134251 199.27984761 -160.17293712 200.89476012 -151.9375 199.4375 C-142.95356587 196.1806097 -136.79426126 190.00815627 -130.21728516 183.36425781 C-129.08048523 182.23424561 -127.94262714 181.1052971 -126.80380249 179.97732544 C-123.73465698 176.93083951 -120.68137713 173.86891293 -117.63151217 170.80313969 C-114.42716742 167.5860697 -111.21056514 164.38129181 -107.99594116 161.17449951 C-102.6023677 155.79000205 -97.21937559 150.39509499 -91.84228516 144.99414062 C-85.63721092 138.76184547 -79.41431138 132.54778538 -73.18187487 126.34286237 C-67.81699177 121.0007112 -62.46196629 115.64882533 -57.11497343 110.28876758 C-53.92761188 107.09363581 -50.7370276 103.90191905 -47.53749466 100.71897125 C-44.53008966 97.72607162 -41.53529688 94.72108536 -38.54956436 91.70656967 C-37.45581751 90.60624502 -36.35785564 89.5100907 -35.25528717 88.4186058 C-28.63227841 81.85603564 -23.09519101 75.90694973 -21.40625 66.46875 C-21.51144094 57.94828369 -23.78525004 50.58974996 -29.9375 44.4375 C-52.02676997 28.66585085 -67.18892468 46.54438021 -82.63208008 61.97094727 Z M-15.63113403 143.00671387 C-16.63562088 144.01659363 -16.63562088 144.01659363 -17.66040039 145.046875 C-18.3628035 145.74913208 -19.0652066 146.45138916 -19.78889465 147.17492676 C-22.12335822 149.5100902 -24.45425415 151.84878201 -26.78515625 154.1875 C-28.39776737 155.80197504 -30.01059858 157.41623028 -31.62364197 159.03027344 C-35.87884541 163.28930415 -40.13103799 167.5513288 -44.38262939 171.81396484 C-48.71747906 176.15902414 -53.05514338 180.50127151 -57.39257812 184.84375 C-65.91032333 193.37223621 -74.42489328 201.90388508 -82.9375 210.4375 C-81.60863589 213.38385292 -80.16314598 215.46112474 -77.88027763 217.74081802 C-77.24928433 218.37579342 -76.61829103 219.01076882 -75.96817672 219.6649859 C-75.27363171 220.35370522 -74.5790867 221.04242455 -73.86349487 221.75201416 C-73.1267466 222.49047128 -72.38999832 223.22892841 -71.63092434 223.98976302 C-69.15435238 226.46963628 -66.67068661 228.94228115 -64.18701172 231.41503906 C-62.41291078 233.18857603 -60.63924978 234.96255317 -58.86599731 236.73693848 C-55.04388792 240.55950371 -51.21873099 244.37897788 -47.39077377 248.19568634 C-41.856198 253.71400889 -36.3271523 259.23784499 -30.79944123 264.7630429 C-21.8309764 273.72713035 -12.85805421 282.68674226 -3.88232422 291.64355469 C4.8368151 300.34433632 13.55385163 309.0472158 22.26806641 317.75292969 C23.07376704 318.55784215 23.07376704 318.55784215 23.89574446 319.37901548 C26.5903704 322.07103135 29.28495503 324.76308856 31.97951913 327.45516634 C54.33411181 349.78902518 76.69601383 372.11555184 99.0625 394.4375 C101.9018898 393.06883433 103.97105239 391.777478 106.20098877 389.53952026 C106.79547821 388.94778015 107.38996765 388.35604004 108.00247192 387.74636841 C108.64264252 387.09900726 109.28281311 386.45164612 109.94238281 385.78466797 C110.96738388 384.76010498 110.96738388 384.76010498 112.01309204 383.71484375 C114.26870976 381.45783362 116.51716222 379.1938237 118.765625 376.9296875 C120.32888892 375.36269314 121.89259523 373.79614001 123.45672607 372.23001099 C127.57108445 368.10801858 131.6794012 363.98005516 135.78649902 359.85083008 C139.97904166 355.63782416 144.17725588 351.43047842 148.375 347.22265625 C156.60973528 338.9664751 164.83810065 330.70397643 173.0625 322.4375 C168.79570039 317.34259516 164.3335661 312.56592849 159.62809753 307.87611389 C158.90088778 307.14734415 158.17367803 306.41857441 157.42443162 305.66772074 C155.00171001 303.24102952 152.57545268 300.81790566 150.14916992 298.39477539 C148.40588002 296.65012973 146.66280276 294.90527155 144.91992188 293.16021729 C140.68717811 288.92339399 136.45210718 284.68891016 132.21587136 280.45557941 C128.77501562 277.01698546 125.33514132 273.57741257 121.89595985 270.13714409 C121.16075394 269.40170832 121.16075394 269.40170832 120.41069538 268.65141527 C119.41495908 267.65535924 118.41922502 266.65930097 117.42349318 265.66324048 C108.10113685 256.33803693 98.77572513 247.0158937 89.44925604 237.69480371 C81.44074786 229.69077128 73.43487691 221.68410888 65.4309082 213.67553711 C56.13301244 204.37229665 46.83350564 195.07067151 37.53139955 185.77164072 C36.54091804 184.78147776 35.55043862 183.79131272 34.55996132 182.80114555 C34.07262444 182.31396295 33.58528756 181.82678035 33.0831829 181.32483463 C29.64270342 177.88522 26.20338857 174.44444346 22.76451683 171.00322151 C18.14500309 166.38061997 13.52286137 161.76065804 8.89890289 157.14250183 C7.19719527 155.44212279 5.49634974 153.74088051 3.79640388 152.03874016 C1.48722306 149.72685196 -0.82497486 147.41802583 -3.13801575 145.11000061 C-3.81970804 144.4260776 -4.50140032 143.74215459 -5.20374995 143.03750664 C-10.41851963 137.67692265 -10.41851963 137.67692265 -15.63113403 143.00671387 Z M-51.61708841 325.98029861 C-52.40713277 326.77299718 -52.40713277 326.77299718 -53.21313763 327.58170986 C-53.77134558 328.13786518 -54.32955354 328.6940205 -54.90467688 329.26702902 C-56.79998865 331.15662528 -58.69167057 333.04981552 -60.5834198 334.94297791 C-61.9451058 336.30208284 -63.30700729 337.66097191 -64.66910726 339.01966196 C-68.43147196 342.77392245 -72.19065842 346.53135165 -75.94934094 350.28929818 C-79.9961085 354.33422101 -84.04572346 358.37629142 -88.09494019 362.41876221 C-96.95937432 371.26958644 -105.82000376 380.12421312 -114.67983413 388.97964549 C-120.20968189 394.50673432 -125.74026815 400.03308378 -131.27099037 405.55929756 C-146.57574023 420.8518494 -161.87955676 436.14533351 -177.1798811 451.44231319 C-178.17001721 452.43222768 -179.16015341 453.42214209 -180.15028967 454.41205642 C-181.14284221 455.40438831 -182.13539466 456.39672028 -183.12794703 457.38905233 C-185.11923157 459.37989431 -187.11051838 461.37073401 -189.10180664 463.36157227 C-189.59553213 463.85518837 -190.08925762 464.34880447 -190.59794449 464.85737863 C-206.59809808 480.8539036 -222.60438117 496.84427637 -238.61437607 512.83095134 C-255.53654522 529.72851692 -272.4532584 546.63152406 -289.36373121 563.54079539 C-298.58342725 572.75957426 -307.80553113 581.97591561 -317.03383446 591.18607903 C-324.89428484 599.03113317 -332.74958175 606.88130195 -340.59820583 614.7381885 C-344.60317598 618.74706731 -348.61053255 622.75348149 -352.62446404 626.75338936 C-356.30061112 630.41681032 -359.96973975 634.08711265 -363.6334521 637.76296813 C-364.95862591 639.0901012 -366.28632977 640.41471388 -367.61683264 641.73650431 C-381.24767004 654.81854615 -381.24767004 654.81854615 -387.3125 672.1875 C-387.09140795 679.88150348 -383.43407545 687.18521679 -377.9375 692.4375 C-371.24002113 696.85447531 -365.1049514 699.44939663 -356.9375 698.4375 C-344.40705287 694.80738792 -335.44005781 683.08165357 -326.52331543 674.14356995 C-325.16368971 672.7843807 -323.80384408 671.42541139 -322.44379854 670.06664222 C-318.71990979 666.34498342 -314.99913611 662.62022402 -311.2788744 658.89494002 C-307.2617042 654.87344394 -303.2416368 650.85484586 -299.22192383 646.83589172 C-292.26211228 639.87660405 -285.30413132 632.91549048 -278.34739685 625.95312691 C-268.28917192 615.88676858 -258.22818078 605.82317873 -248.16651636 595.76025843 C-231.84147546 579.4330299 -215.51866397 563.10357477 -199.19726562 546.77270508 C-183.3442755 530.91052606 -167.49023198 515.04940111 -151.63476562 499.18969727 C-151.1457675 498.70056761 -150.65676937 498.21143795 -150.15295311 497.70748619 C-145.24209436 492.79530889 -140.33121424 487.88315295 -135.42031846 482.97101268 C-94.25614691 441.7964055 -53.09557948 400.61819677 -11.9375 359.4375 C-13.3805656 356.42814055 -14.80808722 354.31815797 -17.17797852 351.95410156 C-18.16393761 350.96352753 -18.16393761 350.96352753 -19.16981506 349.95294189 C-19.87819016 349.25175232 -20.58656525 348.55056274 -21.31640625 347.828125 C-22.04367416 347.10131531 -22.77094208 346.37450562 -23.52024841 345.62567139 C-25.05532286 344.0936141 -26.5928231 342.56398406 -28.13256836 341.03662109 C-30.49978233 338.68771599 -32.85884419 336.33085453 -35.21679688 333.97265625 C-36.70786114 332.48650526 -38.19938184 331.00081205 -39.69140625 329.515625 C-40.40180557 328.8063385 -41.1122049 328.097052 -41.84413147 327.36627197 C-42.49828537 326.71849792 -43.15243927 326.07072388 -43.82641602 325.40332031 C-44.40440445 324.82914368 -44.98239288 324.25496704 -45.57789612 323.66339111 C-48.35681257 321.15777236 -49.37701238 323.75444062 -51.61708841 325.98029861 Z M220.32641602 349.57421875 C219.18802226 350.71074531 218.04854086 351.84618333 216.9080658 352.98062134 C213.83510909 356.04365961 210.77785442 359.12193302 207.7235806 362.20358658 C204.51701082 365.43409679 201.2969473 368.65110575 198.07859802 371.86987305 C192.68137393 377.27171454 187.29371756 382.68294658 181.91235352 388.10058594 C175.69469282 394.3600479 169.46497032 400.60728891 163.22802597 406.84753323 C156.57625728 413.50290283 149.93215061 420.16587747 143.29091907 426.83176041 C141.38047261 428.74842854 139.46873776 430.66380393 137.5567646 432.57894897 C134.55348803 435.58813259 131.55548015 438.60247169 128.56145668 441.62086105 C127.46305397 442.72669279 126.36297073 443.83085822 125.2610817 444.93321609 C123.75596284 446.43959636 122.25714865 447.95198476 120.75978088 449.46606445 C119.92011056 450.31038528 119.08044024 451.15470612 118.21532536 452.02461243 C112.41363495 458.5271495 111.74266816 464.01261203 111.85546875 472.47265625 C112.38309174 480.02861569 116.65523346 485.46281478 122.0625 490.4375 C128.37791641 494.83302982 135.03190762 496.15586468 142.5625 494.8125 C148.98649438 493.17044271 154.81909881 489.5649431 159.0625 484.4375 C159.0625 483.7775 159.0625 483.1175 159.0625 482.4375 C159.7225 482.4375 160.3825 482.4375 161.0625 482.4375 C162.42426922 480.79398543 163.75212066 479.12227344 165.0625 477.4375 C166.7079378 475.74987149 168.37538577 474.0834651 170.0625 472.4375 C170.805 471.674375 171.5475 470.91125 172.3125 470.125 C175.4062841 467.10152918 178.62434071 464.25079366 181.87890625 461.40234375 C184.02332746 459.47274828 186.11238213 457.56449931 188.0625 455.4375 C188.0625 454.7775 188.0625 454.1175 188.0625 453.4375 C188.7225 453.4375 189.3825 453.4375 190.0625 453.4375 C190.0625 452.7775 190.0625 452.1175 190.0625 451.4375 C190.7225 451.4375 191.3825 451.4375 192.0625 451.4375 C193.69925508 449.81950498 193.69925508 449.81950498 195.375 447.75 C198.14534781 444.49211686 200.996107 441.42319845 204.0625 438.4375 C205.73073976 436.77238428 207.39697261 435.10532573 209.0625 433.4375 C210.47908064 432.02074732 211.89575612 430.60408945 213.3125 429.1875 C214.0859375 428.4140625 214.859375 427.640625 215.65625 426.84375 C222.79166667 419.70833333 229.92708333 412.57291667 237.0625 405.4375 C237.866875 404.6125 238.67125 403.7875 239.5 402.9375 C242.0625 400.4375 242.0625 400.4375 245.0625 398 C248.14153881 395.36998768 250.51328401 392.5749966 253.0625 389.4375 C254.7084651 387.75038577 256.37487149 386.0829378 258.0625 384.4375 C258.8875 383.6125 259.7125 382.7875 260.5625 381.9375 C262.17792317 380.32207683 263.84319839 378.75438891 265.5625 377.25 C271.43105969 370.64787035 273.88574577 364.1159559 273.48828125 355.26953125 C272.85695533 351.07034508 271.41686543 347.93634863 269.0625 344.4375 C268.485 343.550625 267.9075 342.66375 267.3125 341.75 C262.02126496 336.31178621 256.09331066 333.31990036 248.5 333.0625 C247.52933594 333.01351563 246.55867187 332.96453125 245.55859375 332.9140625 C234.7594395 334.53091911 227.66134449 342.13179299 220.32641602 349.57421875 Z " fill="#FFFFFF" transform="translate(439.9375,14.5625)"/>
<path d="M0 0 C2.20385917 -0.00435225 4.40771683 -0.0095371 6.61157227 -0.01548767 C12.57456495 -0.02883497 18.53749407 -0.029461 24.50049877 -0.02692437 C29.4901811 -0.02585158 34.47985074 -0.03074601 39.46953034 -0.03552979 C51.92102441 -0.04724321 64.3724903 -0.0464084 76.82398537 -0.03997298 C87.60582134 -0.03480808 98.38756684 -0.04605186 109.16938493 -0.0650712 C120.27218371 -0.08450474 131.3749458 -0.09240529 142.47776246 -0.08894795 C148.69825796 -0.08714084 154.91867064 -0.08971387 161.13915253 -0.10366249 C166.99317917 -0.11629902 172.84702572 -0.11424183 178.7010498 -0.1012516 C180.83946037 -0.09889877 182.97788385 -0.10157363 185.1162796 -0.10987473 C210.59964406 -0.20160223 233.45849603 4.63554826 252.35253906 23.1965332 C268.95058834 40.37229237 274.75475359 61.00328889 274.64160156 84.4543457 C274.6436297 85.9621698 274.64654723 87.46999293 274.65029907 88.97781372 C274.65467962 92.10908521 274.64842587 95.24009699 274.63427734 98.37133789 C274.61709812 102.3656091 274.62710834 106.35927918 274.64499474 110.35352898 C274.6558732 113.45580521 274.65236923 116.55794045 274.64461136 119.6602211 C274.64262517 121.13288573 274.64501236 122.60556359 274.65205002 124.07821274 C274.68943107 134.08437742 274.47342361 142.94682257 267.15292633 150.54859644 C259.61088674 157.36516538 251.40788965 157.9959357 241.64230347 157.90284729 C240.28643042 157.9079008 238.93056406 157.91513582 237.57471287 157.92434543 C233.87280749 157.94318043 230.17156758 157.93108431 226.46967959 157.9136225 C222.46826704 157.90020456 218.46694903 157.91570127 214.46554565 157.92744446 C206.6368344 157.94579152 198.80837329 157.93732887 190.97966991 157.91935623 C184.61649588 157.9053136 178.25338961 157.901441 171.89020157 157.90479851 C170.98354776 157.90527595 170.07689396 157.90575339 169.1427658 157.9062453 C167.30077097 157.90727166 165.45877616 157.90832702 163.61678137 157.90941107 C147.34163891 157.91797194 131.06661702 157.90132197 114.79150391 157.87158203 C99.00564512 157.8427366 83.21995995 157.83566639 67.43408203 157.85107422 C50.23335394 157.86784008 33.03270821 157.8718674 15.83197796 157.85436386 C13.99748366 157.85251951 12.16298935 157.85068478 10.32849503 157.84885979 C9.42594243 157.8479477 8.52338984 157.84703561 7.59348717 157.84609588 C1.23818216 157.84049361 -5.11708259 157.84379469 -11.47238541 157.85040474 C-19.21754148 157.85814078 -26.96252674 157.85137532 -34.70764841 157.8262297 C-38.65806405 157.813742 -42.60821386 157.80757924 -46.55863953 157.81877136 C-50.17705071 157.82882923 -53.7949323 157.82032188 -57.41327916 157.79719018 C-59.33752121 157.78960729 -61.26180987 157.80156869 -63.18602479 157.81429392 C-72.26478913 157.72725232 -79.12930706 155.90218708 -85.75683594 149.2746582 C-90.01018487 142.75606962 -91.86611494 137.71924372 -91.93383789 129.92407227 C-91.94667313 128.63462708 -91.95950836 127.34518188 -91.97273254 126.0166626 C-91.98090843 124.60787343 -91.98835052 123.19907984 -91.99511719 121.7902832 C-91.99919271 121.07474022 -92.00326824 120.35919724 -92.00746727 119.62197113 C-92.0283191 115.82342319 -92.04261613 112.02491111 -92.05200195 108.22631836 C-92.06297375 104.34683339 -92.09726654 100.46793679 -92.13717365 96.58865738 C-92.16364465 93.5701408 -92.17172107 90.55175682 -92.17528343 87.53313446 C-92.1800833 86.10611822 -92.19150224 84.67910512 -92.21032143 83.2522049 C-92.47880533 61.51775546 -85.5625515 40.37143737 -70.68652344 24.1730957 C-50.43993007 4.25438239 -27.16926706 -0.03548092 0 0 Z M-32.75683594 62.2746582 C-42.01668571 75.30278431 -38.75683594 87.21181928 -38.75683594 104.2746582 C47.04316406 104.2746582 132.84316406 104.2746582 221.24316406 104.2746582 C223.55376764 76.03247538 223.55376764 76.03247538 216.24316406 63.2746582 C209.01347891 56.04497305 202.2743177 53.18402312 192.03866982 53.1315906 C191.22671017 53.13245709 190.41475052 53.13332357 189.57818604 53.13421631 C188.7063838 53.13124519 187.83458156 53.12827406 186.93636107 53.12521291 C184.01550702 53.11654233 181.09469403 53.11501905 178.17382812 53.11352539 C176.07934482 53.10889607 173.98486235 53.10387125 171.89038086 53.09848022 C166.20017179 53.08536552 160.50997451 53.07891311 154.81975269 53.07446957 C151.26392521 53.07153744 147.70810095 53.06743237 144.15227509 53.06296539 C133.02451411 53.04929312 121.8967605 53.03962505 110.76899171 53.0357635 C97.92799034 53.03128281 85.08709542 53.01373316 72.24612641 52.98476291 C62.31730247 52.96314095 52.38850848 52.95305895 42.45966125 52.95172238 C36.53101111 52.95067476 30.60246108 52.94477586 24.67383575 52.92690277 C19.09569572 52.91041323 13.51773094 52.90827097 7.9395752 52.91704178 C5.89539877 52.91781167 3.85121288 52.91347584 1.80706024 52.90358353 C-0.99014182 52.89084375 -3.78672502 52.89675191 -6.58392334 52.90716553 C-7.3869601 52.89910912 -8.18999687 52.89105272 -9.01736808 52.88275218 C-18.08913938 52.96138289 -26.29674915 55.75827436 -32.75683594 62.2746582 Z " fill="#FFFFFF" transform="translate(525.7568359375,642.725341796875)"/>
</svg>
